<svg xmlns="http://www.w3.org/2000/svg" width="256" height="256"><path fill-opacity=".016" d="M0 128.004v128.004l128.25-.254 128.25-.254.254-127.75L257.008 0H0v128.004m.485.496c0 70.4.119 99.053.265 63.672.146-35.38.146-92.98 0-128C.604 29.153.485 58.1.485 128.5" fill="#3396f3" fill-rule="evenodd"/><path fill-opacity=".091" d="M111.922 12.489c-31.115 5.893-58.226 23.193-76.24 48.649C29.068 70.484 21.57 86.746 18.455 98.5c-3.261 12.307-4.402 33.582-2.501 46.623 6.254 42.894 37.408 79.98 78.851 93.865 31.227 10.462 66.278 7.027 94.695-9.28 38.518-22.105 61.215-63.254 59.133-107.208-2.445-51.614-37.845-94.954-88.339-108.153-12.36-3.231-36.275-4.15-48.372-1.858M61.24 57.097c-2.343 1.167-5.093 3.31-6.111 4.762-2.585 3.687-4.395 9.727-3.634 12.125C52.093 75.867 52.98 76 64.931 76h12.797l.636 4.64c.35 2.551.636 29.075.636 58.941 0 29.865.356 54.521.791 54.79.436.269 5.848.597 12.027.73l11.235.24 3.286-3.185 3.286-3.184 2.437 2.606c4.327 4.625 5.288 4.699 10.404.792l4.689-3.58 3.864 3.105c4.775 3.837 7.502 3.861 11.895.105l3.414-2.919 3.371 2.959c4.244 3.727 6.549 3.724 11.273-.017l3.759-2.978 1.873 2.07c1.031 1.139 2.779 2.555 3.885 3.147 2.551 1.365 22.52.975 24.266-.474 1.031-.856 1.234-13.58 1.017-63.757l-.272-62.688-2.723-3.569c-1.497-1.963-4.872-4.628-7.5-5.922L180.5 55.5l-57.5-.262c-56.856-.259-57.548-.238-61.76 1.859m23.392 7.625C85.11 65.7 85.725 93.725 86 127l.5 60.5 6.595.292 6.595.292 3.722-4.542c2.047-2.498 4.46-4.542 5.363-4.542.902 0 3.326 1.646 5.387 3.658l3.746 3.658 4.049-3.658c2.227-2.012 4.455-3.658 4.951-3.658.497 0 2.788 1.575 5.092 3.5s4.535 3.5 4.957 3.5c.422 0 2.467-1.35 4.543-3s4.372-3 5.103-3c.73 0 2.865 1.35 4.744 3 1.879 1.65 3.748 3 4.153 3 .405 0 2.274-1.35 4.153-3 1.879-1.65 4.086-3 4.904-3 .818 0 3.44 1.8 5.827 4 4.154 3.829 4.623 4 10.978 4H188V69.102l-3.671-2.801-3.671-2.801-48.447-.278c-46.141-.265-48.405-.193-47.579 1.5m20.538 28.152c-.756.479-1.188 2.092-1 3.735l.33 2.891 32 .28c17.6.153 33.012.032 34.25-.27 2.498-.609 3.105-4.255 1.05-6.31-1.417-1.417-64.423-1.725-66.63-.326m-1.229 18.697c-.963 1.16-1.038 2.052-.274 3.263.947 1.501 4.402 1.666 34.942 1.666H172.5v-6l-33.617-.263c-29.776-.233-33.768-.081-34.942 1.334m1.309 16.091c-1.819.734-1.559 6.005.332 6.731.87.334 15.855.607 33.3.607 23.336 0 32.035-.317 32.918-1.2 1.714-1.714 1.482-5.478-.382-6.193-1.887-.724-64.366-.672-66.168.055m52.191 27.63c-.292.762-.398 4.945-.236 9.296.232 6.235.613 7.912 1.795 7.912 1.168 0 1.565-1.603 1.794-7.25l.294-7.25h3.398c3.283 0 3.41.145 3.707 4.241.227 3.143.773 4.33 2.107 4.583 1.604.305 1.767-.347 1.5-5.991l-.3-6.333-6.764-.296c-5.048-.221-6.898.055-7.295 1.088m17.247-.646c-.379.378-.688 3.762-.688 7.521V169h-3.5c-3.189 0-3.5-.256-3.5-2.878 0-3.409-2.627-6.257-3.551-3.849-.316.824-.434 3.462-.262 5.863l.313 4.364h14v-8.917c0-8.26-.835-10.914-2.812-8.937" fill="#3396f3" fill-rule="evenodd"/><path fill-opacity=".307" d="M116.5 12.057c-19.185 2.589-42.615 12.667-57.583 24.768C32.8 57.94 17.015 88.778 15.319 122c-2.779 54.474 33.384 104.452 85.714 118.456 31.788 8.507 64.503 3.73 92.616-13.524 11.888-7.296 29.794-25.179 37.132-37.086 22.56-36.603 23.555-83.07 2.555-119.346-17.295-29.877-44.829-49.889-78.498-57.052-9.079-1.931-28.983-2.653-38.338-1.391m-55 44.355C54.204 59.654 48.32 71.92 52.2 75.8c.803.803 5.267 1.2 13.5 1.2H78v57.5c0 68.41-1.658 61.495 14.75 61.509l10.75.009 2.639-3.21 2.638-3.211 3.646 3.202c2.006 1.76 4.305 3.201 5.109 3.201.804 0 3.254-1.618 5.443-3.597l3.981-3.596 4.202 3.596c2.311 1.979 4.844 3.597 5.628 3.597.784 0 3.131-1.35 5.214-3 2.083-1.65 3.999-3 4.256-3 .258 0 2.168 1.35 4.244 3 2.076 1.65 4.372 3 5.103 3 .73 0 2.865-1.35 4.744-3 1.879-1.65 3.633-3 3.898-3 .264 0 2.179 1.35 4.255 3 3.636 2.889 4.15 3 13.946 3 7.085 0 10.746-.42 12.065-1.384 1.827-1.336 1.882-3.535 1.603-63.72-.237-50.857-.546-62.831-1.681-65.026-1.914-3.702-8.216-8.711-12.433-9.885-2.09-.581-26.47-.96-60.5-.94-45.276.026-57.617.308-60 1.367m23.715 8.838c.998 1.748 1.349 15.59 1.572 62l.287 59.75h6.26c5.986 0 6.431-.175 10.166-4 2.148-2.2 4.753-4 5.788-4 1.036 0 3.258 1.553 4.938 3.451l3.056 3.452 4.212-3.452c2.317-1.898 4.872-3.451 5.679-3.451.807 0 3.35 1.611 5.651 3.581l4.183 3.581 3.891-3.081c4.854-3.845 6.459-3.853 10.789-.051l3.45 3.029 3.826-3.029c2.103-1.667 4.589-3.03 5.522-3.03.933 0 3.537 1.575 5.786 3.5 3.806 3.258 4.56 3.5 10.909 3.5H188V70.374l-2.825-2.707c-1.554-1.488-4.364-3.148-6.244-3.687-2.009-.576-22.286-.98-49.21-.98H83.93l1.285 2.25M104.2 93.2c-1.536 1.536-1.536 4.064 0 5.6.885.885 9.906 1.2 34.378 1.2 28.556 0 33.354-.213 34.447-1.53.97-1.169 1.004-2.111.143-4L172.043 92h-33.322c-24.583 0-33.636.315-34.521 1.2m.55 16.88c-2.35 1.369-2.237 5.589.184 6.885 1.218.652 13.787 1.035 33.929 1.035 27.752 0 32.202-.208 33.566-1.571 2.06-2.061 1.985-3.745-.258-5.774-1.623-1.469-5.423-1.652-33.75-1.625-19.815.019-32.585.417-33.671 1.05m-.55 18.12c-1.536 1.536-1.536 4.064 0 5.6.885.885 9.926 1.2 34.465 1.2 32.241 0 33.298-.062 34.335-2 .76-1.421.76-2.579 0-4-1.037-1.938-2.094-2-34.335-2-24.539 0-33.58.315-34.465 1.2m53.224 27.138c-.283.737-.381 4.894-.219 9.24.243 6.506.596 7.958 2 8.226 1.46.279 1.747-.725 2-6.989l.295-7.315h3c2.781 0 3.023.293 3.317 4 .404 5.103 1.836 6.653 3.75 4.059 1.461-1.979 1.923-8.119.826-10.977-.807-2.103-14.173-2.32-14.969-.244m17.102-.171c-.261.733-.599 4.033-.751 7.333-.273 5.947-.303 6.003-3.461 6.309-3.033.293-3.201.125-3.5-3.5-.213-2.58-.798-3.809-1.814-3.809-1.125 0-1.575 1.439-1.8 5.75l-.3 5.75h15.175l-.287-9.169c-.196-6.23-.689-9.302-1.537-9.583-.688-.228-1.464.186-1.725.919" fill="#3396f3" fill-rule="evenodd"/><path fill-opacity=".159" d="M112.5 13.02C97.289 15.744 79.906 22.68 67 31.176c-8.246 5.428-22.631 19.226-28.933 27.754-33.14 44.842-29.448 107.363 8.747 148.132 11 11.741 19.187 17.807 33.686 24.959 16.829 8.301 27.869 11.049 47 11.702 17.016.58 26.769-.776 41.92-5.826C216.282 222.278 248 177.919 248 128c0-44.983-24.823-84.68-65.371-104.541-16.917-8.286-27.296-10.666-48.129-11.034-9.35-.165-19.25.103-22 .595M64.128 55.15c-6.72 1.934-11.975 7.926-13.572 15.476C49.383 76.175 51.327 77 65.571 77H78v57.929c0 51.329.179 58.107 1.571 59.5 1.241 1.24 3.917 1.571 12.703 1.571 11.019 0 11.162-.03 14.234-3.008l3.103-3.007 2.882 3.007c3.627 3.787 5.854 3.788 10.16.008 1.879-1.65 3.992-3 4.695-3 .703 0 2.571 1.35 4.152 3 3.621 3.78 6.238 3.784 10.975.02l3.75-2.98 3.615 2.98c4.488 3.699 6.726 3.697 11.061-.009l3.4-2.908 3.578 2.948c3.486 2.874 3.86 2.949 14.694 2.949 9.5 0 11.358-.266 12.772-1.829 1.502-1.66 1.653-7.446 1.633-62.75-.021-57.421-.13-61.158-1.898-65.053-2.379-5.238-9.245-10.072-16.172-11.385-6.792-1.289-110.244-1.137-114.78.167M85.738 65c.419.825.885 28.612 1.035 61.75l.272 60.25h6.298c6.197 0 6.361-.071 10.341-4.5 2.224-2.475 4.553-4.5 5.177-4.5.623 0 2.931 1.624 5.129 3.61l3.996 3.61 3.542-3.11c4.443-3.901 7.312-3.93 10.972-.11 3.607 3.765 4.685 3.749 9.523-.139 3.867-3.107 3.932-3.121 6.691-1.367 1.532.974 3.722 2.618 4.867 3.654 2.042 1.848 2.117 1.844 3.998-.235 1.054-1.165 3.106-2.733 4.56-3.485 2.429-1.256 2.971-1.131 6.653 1.536 2.205 1.597 4.305 3.384 4.667 3.97.364.589 3.765 1.066 7.6 1.066H188l-.015-57.25c-.011-43.483-.312-57.838-1.252-59.695-.681-1.345-2.586-3.227-4.235-4.182-2.708-1.569-7.565-1.767-50.26-2.055-41.75-.281-47.172-.143-46.5 1.182M104.2 93.2c-1.837 1.837-1.428 5.608.734 6.765 1.218.652 13.787 1.035 33.929 1.035 27.752 0 32.202-.208 33.566-1.571 1.871-1.872 2.032-4.568.371-6.229-1.718-1.718-66.882-1.718-68.6 0m0 17c-1.543 1.543-1.543 5.057 0 6.6 1.718 1.718 66.882 1.718 68.6 0 1.543-1.543 1.543-5.057 0-6.6-1.718-1.718-66.882-1.718-68.6 0m.371 17.371c-2.218 2.219-1.95 5.05.652 6.872 1.895 1.328 6.788 1.557 33.277 1.557s31.382-.229 33.277-1.557c2.699-1.89 2.854-4.562.394-6.788-1.621-1.468-5.462-1.655-33.928-1.655-27.849 0-32.308.208-33.672 1.571m52.959 27.042c-1.151 1.151-1.335 3.209-.868 9.674.651 9 1.412 10.727 3.838 8.713 1.2-.996 1.866-1.034 2.742-.158 1.687 1.687 13.234 1.494 14.678-.245.738-.89 1.057-4.456.872-9.75-.273-7.792-.442-8.368-2.542-8.667-1.254-.178-2.25.209-2.25.873 0 .906-.334.914-1.395.034-2.241-1.86-13.34-2.209-15.075-.474m4.47 5.856c0 .9.586 1.244 1.513.888.832-.32 2.182-.025 3 .654 1.237 1.026 1.487.877 1.487-.889 0-1.691-.609-2.122-3-2.122-1.972 0-3 .503-3 1.469m5 6.531c0 .55.477 1 1.059 1s.781-.45.441-1-.816-1-1.059-1-.441.45-.441 1" fill="#3396f3" fill-rule="evenodd"/></svg>